<?xml version="1.0" encoding="UTF-8"?>
<svg width="24px" height="24px" viewBox="0 0 408 448" version="1.1" xmlns="http://www.w3.org/2000/svg" xmlns:xlink="http://www.w3.org/1999/xlink">
    <title>ic_logo1</title>
    <defs>
        <linearGradient x1="9.28652658%" y1="122.20437%" x2="57.8355152%" y2="42.6108703%" id="linearGradient-1">
            <stop stop-color="#FFC845" offset="0%"></stop>
            <stop stop-color="#FFC845" stop-opacity="0.39" offset="77.13%"></stop>
            <stop stop-color="#FFC845" stop-opacity="0" offset="100%"></stop>
        </linearGradient>
    </defs>
    <g id="Page-1" stroke="none" stroke-width="1" fill="none" fill-rule="evenodd">
        <g id="Artboard" transform="translate(-21.000000, -44.000000)" fill-rule="nonzero">
            <g id="Group" transform="translate(21.000000, 44.000000)">
                <g id="Path">
                    <path d="M347.339573,412.882319 L107.740617,412.882319 C72.9861099,412.882319 45.4241742,383.981449 47.495635,349.732174 L71.4736147,175.02029 C71.695557,171.424928 72.2298623,167.918841 73.0600906,164.526377 C79.4881949,138.255072 103.433294,118.995942 131.718597,118.995942 L323.361594,118.995942 C355.288393,118.995942 381.691297,143.554783 383.606576,175.02029 L407.584556,349.732174 C409.664237,383.981449 382.085861,412.882319 347.339573,412.882319 Z" fill="#FFC845"></path>
                    <path d="M300.772808,447.529275 L61.1738517,447.529275 C26.4193442,447.529275 -1.14259143,418.628406 0.928869289,384.37913 L24.9068491,209.667246 C25.1287913,206.071884 25.6630966,202.565797 26.4933249,199.173333 C32.9214292,172.902029 56.8665287,153.642899 85.1518315,153.642899 L276.794828,153.642899 C308.721627,153.642899 335.124531,178.201739 337.03981,209.667246 L361.01779,384.37913 C363.097471,418.628406 335.519095,447.529275 300.772808,447.529275 Z" fill="url(#linearGradient-1)"></path>
                    <path d="M327.364774,119.004058 L327.364774,99.0388406 C327.364774,44.6944928 282.581766,0.47884058 227.540095,0.47884058 C172.498425,0.47884058 127.715417,44.6863768 127.715417,99.0307246 L127.715417,167.788986 C127.715417,222.133333 172.498425,266.348986 227.540095,266.348986 C263.067291,266.348986 296.194222,247.471304 313.99892,217.077101 L285.442354,200.764058 C273.515015,221.118841 251.329013,233.771594 227.540095,233.771594 C190.689467,233.771594 160.710827,204.172754 160.710827,167.788986 L160.710827,99.0307246 C160.710827,62.6469565 190.689467,33.0481159 227.540095,33.0481159 C264.390724,33.0481159 294.369364,62.6469565 294.369364,99.0307246 L294.369364,118.995942 L327.364774,118.995942 L327.364774,119.004058 Z" fill="#52565E"></path>
                </g>
                <polygon id="Path" fill="#52565E" points="327.364774 122.266667 327.364774 89.6892754 149.810998 105.977971 149.810998 122.266667"></polygon>
            </g>
        </g>
    </g>
</svg>